<svg xmlns="http://www.w3.org/2000/svg" xmlns:xlink="http://www.w3.org/1999/xlink" viewBox="0 0 449.21 137.71"><defs><symbol id="b" viewBox="0 0 190.48 134.85"><g style="isolation:isolate"><path d="M56.51,11.52v87H33.89V62H27.13V98.49H4.51v-87H27.13v31.1h6.76V11.52Z" fill="#fff"/><path d="M65.59,11.52H103.3V28.93H88.2V45.42h14.13V62H88.2V81.08h16.6V98.49H65.59Z" fill="#fff"/><path d="M133.91,11.52V81.08h13.76V98.49H111.3v-87Z" fill="#fff"/><path d="M175.76,11.52V81.08h13.75V98.49H153.14v-87Z" fill="#fff"/></g></symbol><symbol id="c" viewBox="0 0 71.01 87.28"><path d="M14.93,51.81c-3.12-7.89-2-13.93-1.3-16.25a2.12,2.12,0,0,1,1.28-1.41l6.38-2.52a2.17,2.17,0,0,0,1.35-2.34L20.33,15.22a2.16,2.16,0,0,0-2.26-1.84l-13.7.42a2.12,2.12,0,0,0-1.91,1.5C.6,21.22-3,36.22,4.78,55.83S25.37,84,30.78,87a2.16,2.16,0,0,0,2.45-.23l10.23-9.06a2.15,2.15,0,0,0,.4-2.88L35.92,63a2.16,2.16,0,0,0-2.57-.79L27,64.71a2.23,2.23,0,0,1-1.9-.15C23,63.32,18,59.69,14.93,51.81Z" fill="#00aeef" fill-rule="evenodd"/><path d="M56,35.48c3.12,7.89,2,13.92,1.3,16.25a2.21,2.21,0,0,1-1.29,1.41l-6.38,2.52A2.16,2.16,0,0,0,48.33,58l2.31,14.08A2.17,2.17,0,0,0,52.9,73.9l13.7-.42a2.18,2.18,0,0,0,2-1.5c1.86-5.92,5.43-20.92-2.32-40.53S45.63,3.33,40.23.28a2.16,2.16,0,0,0-2.45.23L27.46,9.57a2.17,2.17,0,0,0-.4,2.89L35,24.32a2.18,2.18,0,0,0,2.58.78L44,22.58a2.13,2.13,0,0,1,1.9.15C48,24,52.93,27.59,56,35.48Z" fill="#ed1c24" fill-rule="evenodd"/><path d="M25.08,55.7a1.21,1.21,0,0,1-.63-1.59,9.11,9.11,0,0,0-4.69-12h0a1.22,1.22,0,1,1,1-2.23,11.55,11.55,0,0,1,6,15.15,1.21,1.21,0,0,1-1.56.7Z" fill="#fff" fill-rule="evenodd"/><path d="M30.64,58.12a1.23,1.23,0,0,1-.63-1.6,15.18,15.18,0,0,0-7.87-19.94,1.22,1.22,0,1,1,1-2.22,17.6,17.6,0,0,1,9.14,23.12,1.25,1.25,0,0,1-.67.65A1.3,1.3,0,0,1,30.64,58.12Z" fill="#fff" fill-rule="evenodd"/><path d="M45.88,29.06a1.2,1.2,0,0,1,.63,1.59h0a9.11,9.11,0,0,0,4.71,12h0a1.22,1.22,0,0,1-1,2.23h0a11.54,11.54,0,0,1-6-15.16,1.22,1.22,0,0,1,1.58-.7Z" fill="#fff" fill-rule="evenodd"/><path d="M40.32,26.65A1.2,1.2,0,0,1,41,28.24h0a15.15,15.15,0,0,0,7.88,19.93,1.22,1.22,0,0,1-1,2.23A17.6,17.6,0,0,1,38.7,27.28a1.13,1.13,0,0,1,.66-.64A1.19,1.19,0,0,1,40.32,26.65Z" fill="#fff" fill-rule="evenodd"/></symbol><symbol id="d" viewBox="0 0 178.35 128.74"><g style="isolation:isolate"><path d="M7.4,101.34v-87h26q11.19,0,16.64,5.2t5.45,16q0,8.65-2.68,13.39a11.1,11.1,0,0,1-8.05,5.71,13,13,0,0,1,9.51,6.07q3.42,5.22,3.42,13.81,0,13.84-5.79,20.34t-18,6.49ZM23.16,49.66h5.42q6.11,0,8.42-2.66t2.32-9.77c0-4.26-.79-7.17-2.35-8.73s-4.51-2.34-8.84-2.34h-5Zm0,39.31h6.67c4.18,0,7.11-1,8.81-3.08s2.54-5.62,2.54-10.7q0-7.91-2.77-10.9T28,61.29H23.16Z" fill="#00aeef"/></g><g style="isolation:isolate"><path d="M66.47,101.34c0-.29,0-.75-.06-1.36s0-1.07,0-1.37a46.17,46.17,0,0,1,4.07-19A62.31,62.31,0,0,1,82.82,61.9c1-1,2.49-2.46,4.46-4.35a60.14,60.14,0,0,0,7.42-8,18.62,18.62,0,0,0,2.48-5.44A25,25,0,0,0,98,37.46Q98,32,96,29.37c-1.3-1.74-3.31-2.62-6-2.62A6.81,6.81,0,0,0,83.74,30q-2,3.23-2,10.32c0,.89,0,1.58,0,2.06s.06.91.06,1.29h-15c0-.38,0-.88-.06-1.51s-.06-1.08-.06-1.34q0-13.5,5.7-19.72t18-6.22Q102,14.87,108,20.5t6.09,16.29A36.55,36.55,0,0,1,113,45.94a30,30,0,0,1-3.38,8q-1.79,3-8,9.32c-2.15,2.16-3.81,3.87-5,5.13l-.06.06Q84.38,82,82.71,87.62h30.4v13.72Z" fill="#fff"/></g><g style="isolation:isolate"><path d="M157.75,70.22h15.16c0,.37,0,.9.06,1.61s.05,1.26.05,1.65Q173,88,166.91,95t-18.73,7a30.37,30.37,0,0,1-10.27-1.55,19,19,0,0,1-7.4-4.81c-2.82-2.9-4.82-6.89-6-12s-1.74-13.92-1.74-26.53a160.86,160.86,0,0,1,1-20.57q1-7.63,3.21-11.39a20.81,20.81,0,0,1,8.37-8.34q5-2.58,12.77-2.58,12.72,0,18.51,6.63t5.84,21.3H157.42v-2q0-6.8-2.2-10.13a7.49,7.49,0,0,0-6.71-3.35q-5.61,0-7.64,4.62t-2,25.55q0,22.62,2,27.5c1.33,3.27,3.85,4.9,7.59,4.9,3.48,0,5.9-1.28,7.28-3.84s2.07-7.27,2.07-14.15Z" fill="#ed1c24"/></g></symbol><symbol id="a" viewBox="0 0 449.21 137.71"><use width="190.48" height="134.85" transform="translate(0 2.86)" xlink:href="#b"/><use width="71.01" height="87.27" transform="translate(194.45 14.23)" xlink:href="#c"/><use width="178.35" height="128.74" transform="translate(270.86)" xlink:href="#d"/></symbol></defs><title>HelloB2C-Logo-BlackBG</title><use width="449.21" height="137.71" xlink:href="#a"/></svg>