<svg xmlns="http://www.w3.org/2000/svg" xmlns:xlink="http://www.w3.org/1999/xlink" viewBox="0 0 222.5 32.85"><defs><linearGradient id="a" x1="151.8" y1="26.96" x2="153.65" y2="26.96" gradientTransform="matrix(1, 0, 0, -1, 0, 36.88)" gradientUnits="userSpaceOnUse"><stop offset="0" stop-color="#ec2227"/><stop offset="1" stop-color="#890606"/></linearGradient><linearGradient id="b" x1="229.15" y1="-132.08" x2="235.23" y2="-132.08" gradientTransform="matrix(1, 0, 0, -1, -79.71, -115.1)" xlink:href="#a"/><linearGradient id="c" x1="228.96" y1="-129.06" x2="235.18" y2="-129.06" gradientTransform="matrix(1, 0, 0, -1, -79.71, -115.1)" xlink:href="#a"/><linearGradient id="d" x1="156.63" y1="26.59" x2="158.19" y2="26.59" xlink:href="#a"/><linearGradient id="e" x1="-7520.48" y1="141.26" x2="-7515.4" y2="141.26" gradientTransform="translate(-7352.63 -367.06) rotate(-176)" xlink:href="#a"/><linearGradient id="f" x1="234.71" y1="-129.16" x2="239.94" y2="-129.16" gradientTransform="matrix(1, 0, 0, -1, -79.71, -115.1)" xlink:href="#a"/><linearGradient id="g" x1="79.71" y1="-144.86" x2="118" y2="-144.86" gradientTransform="matrix(1, 0, 0, -1, -79.71, -115.1)" gradientUnits="userSpaceOnUse"><stop offset="0" stop-color="#2bace2"/><stop offset="1" stop-color="#01506d"/></linearGradient><linearGradient id="h" x1="82.96" y1="-137.99" x2="117.32" y2="-137.99" xlink:href="#g"/><linearGradient id="i" x1="90.93" y1="-131.05" x2="116.44" y2="-131.05" xlink:href="#g"/><clipPath id="j" transform="translate(0 -3.01)"><rect x="168.95" y="21.61" width="54.19" height="16.61" fill="none"/></clipPath><clipPath id="l" transform="translate(0 -3.01)"><rect x="201.63" y="23.54" width="7.61" height="15.53" fill="none"/></clipPath><clipPath id="m" transform="translate(0 -3.01)"><rect x="209.05" y="23.69" width="6.89" height="15.34" fill="none"/></clipPath><clipPath id="n" transform="translate(0 -3.01)"><rect x="215.78" y="23.85" width="7.36" height="14.94" fill="none"/></clipPath><clipPath id="o" transform="translate(0 -3.01)"><rect x="168.95" y="23.89" width="22.98" height="16.27" fill="none"/></clipPath></defs><title>Learning-HelloB2C-Logo</title><g style="isolation:isolate"><path d="M38.67,35.77V11.88h4.45V31.71h8v4.06Z" transform="translate(0 -3.01)" fill="#131313"/><path d="M54.17,35.77V11.88H66.44v4H58.59v5.52H65.9v3.79H58.59v6.58h8v4Z" transform="translate(0 -3.01)" fill="#131313"/><path d="M68.15,35.77l5.38-23.89h6l5.43,23.89H80.14l-1.18-6H73.84l-1.15,6Zm6.39-9.59h3.78l-1.91-10Z" transform="translate(0 -3.01)" fill="#131313"/><path d="M87.27,35.77V11.88h8q3.61,0,5.2,1.47c1.06,1,1.59,2.57,1.59,4.78a6.78,6.78,0,0,1-.85,3.67,3.4,3.4,0,0,1-2.51,1.58c2.11.55,3.21,2.34,3.3,5.35V29l.12,3.16a8.29,8.29,0,0,0,.34,2.17,3.68,3.68,0,0,0,.87,1.4H98a8.11,8.11,0,0,1-.28-1.42c-.06-.54-.1-1.31-.12-2.3l-.07-2.5v-.64a3.69,3.69,0,0,0-.88-2.85q-.89-.78-3.6-.78H91.57V35.77ZM91.57,22h2.56a3.68,3.68,0,0,0,2.69-.78,4,4,0,0,0,.75-2.77,3.17,3.17,0,0,0-.82-2.5,4.64,4.64,0,0,0-3-.71H91.57Z" transform="translate(0 -3.01)" fill="#131313"/><path d="M105.61,35.77V11.88h4.58l6.22,16.71-.13-16.71h4.21V35.77h-4.55L109.67,19l.13,16.74Z" transform="translate(0 -3.01)" fill="#131313"/><path d="M124.55,35.77V11.88H129V35.77Z" transform="translate(0 -3.01)" fill="#131313"/><path d="M133.07,35.77V11.88h4.57l6.22,16.71-.12-16.71h4.2V35.77H143.4L137.13,19l.12,16.74Z" transform="translate(0 -3.01)" fill="#131313"/></g><ellipse cx="152.73" cy="9.92" rx="0.93" ry="1.01" fill="url(#a)"/><path d="M153.87,15.65a6.56,6.56,0,0,1-1.94-.84,3.64,3.64,0,0,0-2-.6.55.55,0,0,0-.47.22.45.45,0,0,0-.06.32h0a1.4,1.4,0,0,0,.69.19,5.68,5.68,0,0,1,2.48.87,3.92,3.92,0,0,1,1.51,3.51c-.05.54.4.53.68.2A1.4,1.4,0,0,0,155,19a8.62,8.62,0,0,0,.37-3.6v-.09A2.05,2.05,0,0,1,153.87,15.65Z" transform="translate(0 -3.01)" fill="url(#b)"/><path d="M155.18,13.6c-.1-.42-.2-1.15-.63-1.35a.4.4,0,0,0-.5.21,1.34,1.34,0,0,0-.14.62,1.15,1.15,0,0,1-.74,1.06,3.85,3.85,0,0,1-1.84-.24,2.78,2.78,0,0,0-1.78.06.45.45,0,0,0-.27.58.47.47,0,0,0,.16.21.45.45,0,0,1,.06-.32.55.55,0,0,1,.47-.22,3.64,3.64,0,0,1,2,.6,6.56,6.56,0,0,0,1.94.84,2.06,2.06,0,0,0,1.6-.34,11.38,11.38,0,0,0-.22-1.3Z" transform="translate(0 -3.01)" fill="url(#c)"/><ellipse cx="157.41" cy="10.29" rx="0.78" ry="0.84" fill="url(#d)"/><path d="M156.29,15.5a5.47,5.47,0,0,0,1.66-.58,3,3,0,0,1,1.68-.38.46.46,0,0,1,.37.21.32.32,0,0,1,0,.27h0a1.09,1.09,0,0,1-.59.11,4.72,4.72,0,0,0-2.11.57,3.29,3.29,0,0,0-1.45,2.84c0,.45-.35.41-.57.12a1.33,1.33,0,0,1-.21-.47,7.4,7.4,0,0,1-.11-3v-.08A1.69,1.69,0,0,0,156.29,15.5Z" transform="translate(0 -3.01)" fill="url(#e)"/><path d="M155.29,13.71c.11-.35.23-1,.6-1.09a.35.35,0,0,1,.41.21,1.37,1.37,0,0,1,.08.53,1,1,0,0,0,.56.92,3.1,3.1,0,0,0,1.54-.08,2.22,2.22,0,0,1,1.48.16.37.37,0,0,1,.16.5A.35.35,0,0,1,160,15a.32.32,0,0,0,0-.27.46.46,0,0,0-.37-.21,3,3,0,0,0-1.68.38,5.47,5.47,0,0,1-1.66.58,1.69,1.69,0,0,1-1.31-.39,10.8,10.8,0,0,1,.35-1.1Z" transform="translate(0 -3.01)" fill="url(#f)"/><path d="M0,27.67l7.64,6.72a31.64,31.64,0,0,1,30.65-.57S25.76,19.47,0,27.67Z" transform="translate(0 -3.01)" fill="url(#g)"/><path d="M3.29,13.89l5.11,8.8a31.64,31.64,0,0,1,29.25,9.2S30.29,14.29,3.29,13.89Z" transform="translate(0 -3.01)" fill="url(#h)"/><path d="M11.22,3l2,9.31A29.64,29.64,0,0,1,36.69,28.89S35.23,11.08,11.22,3Z" transform="translate(0 -3.01)" fill="url(#i)"/><g style="isolation:isolate"><g style="isolation:isolate"><path d="M169.5,23V20.3h1l.42,0a1.15,1.15,0,0,1,.34.13.64.64,0,0,1,.21.27.78.78,0,0,1,.09.37.88.88,0,0,1-.22.59,1.09,1.09,0,0,1-.81.25h-.7V23Zm.36-1.44h.71a.75.75,0,0,0,.5-.13.46.46,0,0,0,.14-.37.47.47,0,0,0-.08-.29.41.41,0,0,0-.23-.16,1.3,1.3,0,0,0-.34,0h-.7Z" transform="translate(0 -3.01)" fill="#6b6b6b"/><path d="M171.77,22.05a1,1,0,0,1,.31-.82.91.91,0,0,1,.62-.22.89.89,0,0,1,.67.27,1,1,0,0,1,.26.74,1.4,1.4,0,0,1-.11.6.8.8,0,0,1-.34.34,1,1,0,0,1-.48.13.87.87,0,0,1-.67-.27A1.09,1.09,0,0,1,171.77,22.05Zm.35,0a.86.86,0,0,0,.16.57.52.52,0,0,0,.42.19.55.55,0,0,0,.42-.19.87.87,0,0,0,.17-.58.81.81,0,0,0-.17-.56.56.56,0,0,0-.84,0A.83.83,0,0,0,172.12,22.05Z" transform="translate(0 -3.01)" fill="#6b6b6b"/><path d="M174.28,23l-.61-2H174l.32,1.15.12.43a3.6,3.6,0,0,1,.1-.41l.31-1.17h.35l.3,1.16.1.38.11-.39.34-1.15h.33l-.62,2h-.35l-.32-1.19-.07-.34L174.63,23Z" transform="translate(0 -3.01)" fill="#6b6b6b"/><path d="M177.93,22.4l.35,0a.9.9,0,0,1-.31.48.94.94,0,0,1-.57.17.9.9,0,0,1-.69-.27,1.06,1.06,0,0,1-.25-.76,1,1,0,0,1,.26-.77.84.84,0,0,1,.66-.28.87.87,0,0,1,.66.27,1.12,1.12,0,0,1,.25.76v.09h-1.48a.73.73,0,0,0,.18.5.54.54,0,0,0,.42.18.48.48,0,0,0,.31-.1A.61.61,0,0,0,177.93,22.4Zm-1.11-.54h1.11a.63.63,0,0,0-.12-.38.52.52,0,0,0-.42-.19.53.53,0,0,0-.39.15A.6.6,0,0,0,176.82,21.86Z" transform="translate(0 -3.01)" fill="#6b6b6b"/><path d="M178.58,23v-2h.31v.31a.69.69,0,0,1,.21-.28.36.36,0,0,1,.22-.07.65.65,0,0,1,.34.11l-.11.31a.47.47,0,0,0-.25-.07.36.36,0,0,0-.2.06.35.35,0,0,0-.12.19,1.23,1.23,0,0,0-.06.39v1Z" transform="translate(0 -3.01)" fill="#6b6b6b"/><path d="M181.11,22.4l.35,0a.88.88,0,0,1-.3.48.94.94,0,0,1-.57.17.9.9,0,0,1-.69-.27,1.06,1.06,0,0,1-.26-.76,1.09,1.09,0,0,1,.26-.77.85.85,0,0,1,.67-.28.86.86,0,0,1,.65.27,1.07,1.07,0,0,1,.25.76v.09H180a.73.73,0,0,0,.18.5.56.56,0,0,0,.42.18.51.51,0,0,0,.32-.1A.67.67,0,0,0,181.11,22.4Zm-1.1-.54h1.11a.71.71,0,0,0-.13-.38.52.52,0,0,0-.42-.19.56.56,0,0,0-.39.15A.64.64,0,0,0,180,21.86Z" transform="translate(0 -3.01)" fill="#6b6b6b"/><path d="M183.06,23v-.25a.62.62,0,0,1-.56.3.76.76,0,0,1-.43-.14.79.79,0,0,1-.31-.36,1.44,1.44,0,0,1,0-1.08.8.8,0,0,1,.3-.37.76.76,0,0,1,.44-.13.57.57,0,0,1,.32.08.71.71,0,0,1,.23.19v-1h.33V23Zm-1.06-1a.86.86,0,0,0,.16.57.46.46,0,0,0,.38.19.47.47,0,0,0,.37-.18.86.86,0,0,0,.16-.55,1,1,0,0,0-.16-.6.48.48,0,0,0-.39-.19.46.46,0,0,0-.37.18A.92.92,0,0,0,182,22.05Z" transform="translate(0 -3.01)" fill="#6b6b6b"/><path d="M184.77,23V20.3h1a1.34,1.34,0,0,1,.5.08.64.64,0,0,1,.3.26.66.66,0,0,1,.11.36.56.56,0,0,1-.1.33.69.69,0,0,1-.28.25.73.73,0,0,1,.38.25.68.68,0,0,1,.13.42.72.72,0,0,1-.08.35.67.67,0,0,1-.2.26.83.83,0,0,1-.3.13,1.84,1.84,0,0,1-.44.05Zm.36-1.59h.6a1.35,1.35,0,0,0,.34,0,.33.33,0,0,0,.21-.14.36.36,0,0,0,.07-.24.48.48,0,0,0-.06-.24.38.38,0,0,0-.19-.14,1.39,1.39,0,0,0-.42,0h-.55Zm0,1.27h.69l.24,0a.52.52,0,0,0,.21-.07.4.4,0,0,0,.14-.15.46.46,0,0,0,.06-.23.46.46,0,0,0-.08-.27.44.44,0,0,0-.22-.16,1.35,1.35,0,0,0-.4-.05h-.64Z" transform="translate(0 -3.01)" fill="#6b6b6b"/><path d="M187.17,23.8l0-.31.19,0a.34.34,0,0,0,.18,0,.35.35,0,0,0,.11-.1l.1-.25a.46.46,0,0,0,0-.09l-.75-2h.36l.41,1.15a3.53,3.53,0,0,1,.15.46,3.88,3.88,0,0,1,.14-.45l.42-1.16h.34l-.76,2a2.83,2.83,0,0,1-.19.45.66.66,0,0,1-.2.25.51.51,0,0,1-.28.08A.68.68,0,0,1,187.17,23.8Z" transform="translate(0 -3.01)" fill="#6b6b6b"/></g></g><g style="isolation:isolate"><path d="M157.51,35.42l-.2-1.63a3.07,3.07,0,0,1-1.16,1.53,3.75,3.75,0,0,1-2,.46A3.4,3.4,0,0,1,150.86,34q-.95-1.76-1-6.45a21.7,21.7,0,0,1,.23-3.51,5.32,5.32,0,0,1,.7-2,3.53,3.53,0,0,1,1.53-1.31,5.83,5.83,0,0,1,2.36-.42,4.83,4.83,0,0,1,3.52,1.12,4.78,4.78,0,0,1,1.13,3.5v.38H156.8v-.16a3.37,3.37,0,0,0-.49-2,1.73,1.73,0,0,0-1.48-.68,1.65,1.65,0,0,0-1.64.92c-.3.62-.44,2.25-.44,4.89a13.43,13.43,0,0,0,.42,4.19,1.52,1.52,0,0,0,1.53,1.06,1.69,1.69,0,0,0,1.56-.75,5.06,5.06,0,0,0,.46-2.53v-.51h-1.91V27.35h4.57v8.07Z" transform="translate(0 -3.01)" fill="#131313"/></g><g clip-path="url(#j)"><g clip-path="url(#j)"><g style="isolation:isolate"><g clip-path="url(#l)"><path d="M202.52,35.77V25.27h3.14a2.82,2.82,0,0,1,2,.63,2.55,2.55,0,0,1,.66,1.93,3.25,3.25,0,0,1-.33,1.61,1.29,1.29,0,0,1-1,.69,1.6,1.6,0,0,1,1.15.74,3,3,0,0,1,.41,1.66,3.63,3.63,0,0,1-.7,2.46,2.77,2.77,0,0,1-2.18.78Zm1.9-6.24h.65a1.3,1.3,0,0,0,1-.32,1.8,1.8,0,0,0,.28-1.18,1.54,1.54,0,0,0-.28-1.05A1.53,1.53,0,0,0,205,26.7h-.6Zm0,4.75h.8a1.32,1.32,0,0,0,1.07-.38,2.07,2.07,0,0,0,.3-1.29,2,2,0,0,0-.33-1.31,1.68,1.68,0,0,0-1.25-.36h-.59Z" transform="translate(0 -3.01)" fill="#00aeef"/></g></g><g style="isolation:isolate"><g clip-path="url(#m)"><path d="M209.64,35.77V35.6a1.1,1.1,0,0,1,0-.16,5.56,5.56,0,0,1,.49-2.3,7.56,7.56,0,0,1,1.5-2.13l.53-.52a7.28,7.28,0,0,0,.9-1,2.56,2.56,0,0,0,.3-.65,3.32,3.32,0,0,0,.1-.81,1.59,1.59,0,0,0-.24-1,.86.86,0,0,0-.73-.32.82.82,0,0,0-.75.39,2.48,2.48,0,0,0-.24,1.25,1.56,1.56,0,0,0,0,.24v.16h-1.8a1.21,1.21,0,0,0,0-.18c0-.08,0-.13,0-.16a3.44,3.44,0,0,1,.69-2.38,2.81,2.81,0,0,1,2.17-.75,3,3,0,0,1,2.12.68,2.52,2.52,0,0,1,.73,2,4.33,4.33,0,0,1-.13,1.11,3.66,3.66,0,0,1-.41,1,6.65,6.65,0,0,1-1,1.12l-.6.62h0a8.3,8.3,0,0,0-1.69,2.31h3.67v1.66Z" transform="translate(0 -3.01)" fill="#111"/></g></g><g style="isolation:isolate"><g clip-path="url(#n)"><path d="M220.66,32h1.83v.2a1.56,1.56,0,0,1,0,.2,3.9,3.9,0,0,1-.74,2.6,2.85,2.85,0,0,1-2.26.85,3.55,3.55,0,0,1-1.24-.19,2.29,2.29,0,0,1-.89-.58,3,3,0,0,1-.72-1.44,16.48,16.48,0,0,1-.21-3.2,20.39,20.39,0,0,1,.12-2.49,4.12,4.12,0,0,1,.39-1.37,2.48,2.48,0,0,1,1-1,3.32,3.32,0,0,1,1.54-.32,2.84,2.84,0,0,1,2.24.8,3.91,3.91,0,0,1,.7,2.57h-1.82V28.4a2.21,2.21,0,0,0-.27-1.22,1,1,0,0,0-1.73.15,10.87,10.87,0,0,0-.25,3.08,12.69,12.69,0,0,0,.24,3.32.9.9,0,0,0,.92.59.91.91,0,0,0,.88-.46,4.12,4.12,0,0,0,.25-1.71Z" transform="translate(0 -3.01)" fill="#ed1c24"/></g></g><g style="isolation:isolate"><g clip-path="url(#o)"><path d="M175.77,25.28V35.77H173V31.36h-.82v4.41h-2.73V25.28h2.73V29H173V25.28Z" transform="translate(0 -3.01)" fill="#111"/><path d="M176.86,25.28h4.55v2.1h-1.82v2h1.7v2h-1.7v2.31h2v2.1h-4.73Z" transform="translate(0 -3.01)" fill="#111"/><path d="M185.11,25.28v8.39h1.65v2.1h-4.38V25.28Z" transform="translate(0 -3.01)" fill="#111"/><path d="M190.15,25.28v8.39h1.66v2.1h-4.39V25.28Z" transform="translate(0 -3.01)" fill="#111"/></g></g><path d="M194.09,31.51a3,3,0,0,1-.16-2,.25.25,0,0,1,.16-.17l.77-.3a.28.28,0,0,0,.16-.29l-.28-1.69a.27.27,0,0,0-.27-.23l-1.66.05a.28.28,0,0,0-.23.19,7.26,7.26,0,0,0,.28,4.88A7.21,7.21,0,0,0,196,35.75a.26.26,0,0,0,.3,0l1.23-1.1a.26.26,0,0,0,.05-.34l-1-1.43a.27.27,0,0,0-.31-.1l-.77.31a.27.27,0,0,1-.23,0,3.05,3.05,0,0,1-1.22-1.54" transform="translate(0 -3.01)" fill="#00aeef" fill-rule="evenodd"/><path d="M199.05,29.54a3,3,0,0,1,.15,2,.26.26,0,0,1-.15.17l-.77.3a.28.28,0,0,0-.16.29L198.4,34a.25.25,0,0,0,.27.22l1.65-.05a.26.26,0,0,0,.24-.18,7.8,7.8,0,0,0-3.42-8.65.28.28,0,0,0-.3,0l-1.24,1.09a.28.28,0,0,0,0,.35l1,1.43a.27.27,0,0,0,.31.1l.77-.31a.27.27,0,0,1,.23,0,3.11,3.11,0,0,1,1.23,1.54" transform="translate(0 -3.01)" fill="#ed1c24" fill-rule="evenodd"/><path d="M195.31,32a.14.14,0,0,1-.07-.19,1.1,1.1,0,0,0-.57-1.45h0a.15.15,0,0,1-.08-.2.16.16,0,0,1,.2-.07,1.4,1.4,0,0,1,.72,1.83.15.15,0,0,1-.19.08h0" transform="translate(0 -3.01)" fill="#808285" fill-rule="evenodd"/><path d="M196,32.27a.15.15,0,0,1-.07-.19,1.84,1.84,0,0,0-.95-2.41.14.14,0,0,1-.08-.19.15.15,0,0,1,.2-.08,2.12,2.12,0,0,1,1.1,2.79.11.11,0,0,1-.08.08.13.13,0,0,1-.12,0" transform="translate(0 -3.01)" fill="#808285" fill-rule="evenodd"/><path d="M197.82,28.77a.14.14,0,0,1,.08.19h0a1.09,1.09,0,0,0,.57,1.44h0a.14.14,0,0,1,.07.19.13.13,0,0,1-.19.07,1.38,1.38,0,0,1-.73-1.82.15.15,0,0,1,.19-.09h0" transform="translate(0 -3.01)" fill="#808285" fill-rule="evenodd"/><path d="M197.15,28.47a.15.15,0,0,1,.08.2h0a1.82,1.82,0,0,0,1,2.4.15.15,0,0,1,.07.2.15.15,0,0,1-.19.07,2.11,2.11,0,0,1-1.1-2.79.15.15,0,0,1,.08-.08h.11" transform="translate(0 -3.01)" fill="#808285" fill-rule="evenodd"/></g></g></svg>