<svg xmlns="http://www.w3.org/2000/svg" xmlns:xlink="http://www.w3.org/1999/xlink" viewBox="0 0 71.01 87.27"><defs><symbol id="a" viewBox="0 0 71.01 87.28"><path d="M14.93,51.81c-3.12-7.89-2-13.93-1.3-16.25a2.12,2.12,0,0,1,1.28-1.41l6.38-2.52a2.17,2.17,0,0,0,1.35-2.34L20.33,15.22a2.16,2.16,0,0,0-2.26-1.84l-13.7.42a2.12,2.12,0,0,0-1.91,1.5C.6,21.22-3,36.22,4.78,55.83S25.37,84,30.78,87a2.16,2.16,0,0,0,2.45-.23l10.23-9.06a2.15,2.15,0,0,0,.4-2.88L35.92,63a2.16,2.16,0,0,0-2.57-.79L27,64.71a2.23,2.23,0,0,1-1.9-.15C23,63.32,18,59.69,14.93,51.81Z" fill="#00aeef" fill-rule="evenodd"/><path d="M56,35.48c3.12,7.89,2,13.92,1.3,16.25a2.21,2.21,0,0,1-1.29,1.41l-6.38,2.52A2.16,2.16,0,0,0,48.33,58l2.31,14.08A2.17,2.17,0,0,0,52.9,73.9l13.7-.42a2.18,2.18,0,0,0,2-1.5c1.86-5.92,5.43-20.92-2.32-40.53S45.63,3.33,40.23.28a2.16,2.16,0,0,0-2.45.23L27.46,9.57a2.17,2.17,0,0,0-.4,2.89L35,24.32a2.18,2.18,0,0,0,2.58.78L44,22.58a2.13,2.13,0,0,1,1.9.15C48,24,52.93,27.59,56,35.48Z" fill="#ed1c24" fill-rule="evenodd"/><path d="M25.08,55.7a1.21,1.21,0,0,1-.63-1.59,9.11,9.11,0,0,0-4.69-12h0a1.22,1.22,0,1,1,1-2.23,11.55,11.55,0,0,1,6,15.15,1.21,1.21,0,0,1-1.56.7Z" fill="#808285" fill-rule="evenodd"/><path d="M30.64,58.12a1.23,1.23,0,0,1-.63-1.6,15.18,15.18,0,0,0-7.87-19.94,1.22,1.22,0,1,1,1-2.22,17.6,17.6,0,0,1,9.14,23.12,1.25,1.25,0,0,1-.67.65A1.3,1.3,0,0,1,30.64,58.12Z" fill="#808285" fill-rule="evenodd"/><path d="M45.88,29.06a1.2,1.2,0,0,1,.63,1.59h0a9.11,9.11,0,0,0,4.71,12h0a1.22,1.22,0,0,1-1,2.23h0a11.54,11.54,0,0,1-6-15.16,1.22,1.22,0,0,1,1.58-.7Z" fill="#808285" fill-rule="evenodd"/><path d="M40.32,26.65A1.2,1.2,0,0,1,41,28.24h0a15.15,15.15,0,0,0,7.88,19.93,1.22,1.22,0,0,1-1,2.23A17.6,17.6,0,0,1,38.7,27.28a1.13,1.13,0,0,1,.66-.64A1.19,1.19,0,0,1,40.32,26.65Z" fill="#808285" fill-rule="evenodd"/></symbol></defs><title>Logo-Icon-WhiteBG</title><use width="71.01" height="87.27" xlink:href="#a"/></svg>